<svg width="40" height="40" viewBox="0 0 40 40" fill="none" xmlns="http://www.w3.org/2000/svg">
<rect width="40" height="40" fill="#FFDE38"/>
<path d="M7.394 25.156C6.77867 25.156 6.20667 25.0433 5.678 24.818C5.158 24.5927 4.70733 24.2807 4.326 23.882C3.95333 23.4747 3.68033 23.0023 3.507 22.465L4.976 21.828C5.21 22.3827 5.548 22.8203 5.99 23.141C6.432 23.453 6.93033 23.609 7.485 23.609C7.797 23.609 8.06567 23.5613 8.291 23.466C8.525 23.362 8.70267 23.2233 8.824 23.05C8.954 22.8767 9.019 22.6687 9.019 22.426C9.019 22.14 8.93233 21.906 8.759 21.724C8.59433 21.5333 8.343 21.386 8.005 21.282L6.146 20.684C5.392 20.45 4.82433 20.099 4.443 19.631C4.06167 19.163 3.871 18.6127 3.871 17.98C3.871 17.4253 4.00533 16.9357 4.274 16.511C4.55133 16.0863 4.93267 15.757 5.418 15.523C5.912 15.2803 6.47533 15.159 7.108 15.159C7.68867 15.159 8.22167 15.263 8.707 15.471C9.19233 15.6703 9.60833 15.952 9.955 16.316C10.3103 16.6713 10.5747 17.0917 10.748 17.577L9.292 18.227C9.10133 17.7417 8.81533 17.369 8.434 17.109C8.05267 16.8403 7.61067 16.706 7.108 16.706C6.81333 16.706 6.55333 16.758 6.328 16.862C6.10267 16.9573 5.925 17.096 5.795 17.278C5.67367 17.4513 5.613 17.6593 5.613 17.902C5.613 18.1707 5.69967 18.409 5.873 18.617C6.04633 18.8163 6.31067 18.9723 6.666 19.085L8.447 19.644C9.21833 19.8953 9.79467 20.242 10.176 20.684C10.566 21.126 10.761 21.672 10.761 22.322C10.761 22.8767 10.618 23.3663 10.332 23.791C10.046 24.2157 9.65167 24.5493 9.149 24.792C8.64633 25.0347 8.06133 25.156 7.394 25.156ZM13.939 25V16.875H11.43V15.315H18.19V16.875H15.72V25H13.939ZM22.2069 25.156C21.6089 25.156 21.0846 25.0477 20.6339 24.831C20.1832 24.6143 19.8279 24.311 19.5679 23.921C19.3166 23.5223 19.1909 23.0587 19.1909 22.53C19.1909 22.088 19.2689 21.7067 19.4249 21.386C19.5896 21.0567 19.7889 20.7793 20.0229 20.554C20.2569 20.32 20.4866 20.1293 20.7119 19.982C20.9459 19.8347 21.1409 19.7177 21.2969 19.631L22.1419 19.176C22.4192 19.0287 22.6706 18.8813 22.8959 18.734C23.1299 18.578 23.3162 18.409 23.4549 18.227C23.5936 18.0363 23.6629 17.8153 23.6629 17.564C23.6629 17.278 23.5676 17.0397 23.3769 16.849C23.1949 16.6497 22.9609 16.55 22.6749 16.55C22.3976 16.55 22.1592 16.6497 21.9599 16.849C21.7692 17.0397 21.6739 17.2823 21.6739 17.577C21.6739 17.7937 21.7216 18.006 21.8169 18.214C21.9209 18.422 22.0422 18.617 22.1809 18.799C22.3196 18.9723 22.4539 19.1283 22.5839 19.267L27.7189 25H25.6779L21.3489 20.255C21.1496 20.0383 20.9502 19.8043 20.7509 19.553C20.5516 19.293 20.3869 19.007 20.2569 18.695C20.1269 18.383 20.0619 18.0363 20.0619 17.655C20.0619 17.1523 20.1789 16.7147 20.4129 16.342C20.6556 15.9607 20.9719 15.6703 21.3619 15.471C21.7606 15.263 22.1939 15.159 22.6619 15.159C23.1386 15.159 23.5676 15.263 23.9489 15.471C24.3389 15.679 24.6466 15.965 24.8719 16.329C25.1059 16.693 25.2229 17.109 25.2229 17.577C25.2229 18.0537 25.1102 18.461 24.8849 18.799C24.6682 19.1283 24.4039 19.41 24.0919 19.644C23.7886 19.8693 23.4982 20.06 23.2209 20.216L22.3499 20.736C22.1592 20.84 21.9556 20.9743 21.7389 21.139C21.5309 21.295 21.3532 21.4857 21.2059 21.711C21.0586 21.9277 20.9849 22.192 20.9849 22.504C20.9849 22.8767 21.0976 23.1713 21.3229 23.388C21.5569 23.596 21.8732 23.7 22.2719 23.7C22.5146 23.7 22.7312 23.661 22.9219 23.583C23.1126 23.4963 23.2816 23.3923 23.4289 23.271C23.5762 23.141 23.7019 23.0067 23.8059 22.868C23.9099 22.7207 24.0052 22.5863 24.0919 22.465L25.6129 20.255H27.3939L25.6389 22.985C25.5089 23.2017 25.3486 23.4357 25.1579 23.687C24.9672 23.9383 24.7376 24.1767 24.4689 24.402C24.2002 24.6187 23.8796 24.8007 23.5069 24.948C23.1429 25.0867 22.7096 25.156 22.2069 25.156ZM32.7755 25.156C32.1602 25.156 31.5882 25.0433 31.0595 24.818C30.5395 24.5927 30.0888 24.2807 29.7075 23.882C29.3348 23.4747 29.0618 23.0023 28.8885 22.465L30.3575 21.828C30.5915 22.3827 30.9295 22.8203 31.3715 23.141C31.8135 23.453 32.3118 23.609 32.8665 23.609C33.1785 23.609 33.4472 23.5613 33.6725 23.466C33.9065 23.362 34.0842 23.2233 34.2055 23.05C34.3355 22.8767 34.4005 22.6687 34.4005 22.426C34.4005 22.14 34.3138 21.906 34.1405 21.724C33.9758 21.5333 33.7245 21.386 33.3865 21.282L31.5275 20.684C30.7735 20.45 30.2058 20.099 29.8245 19.631C29.4432 19.163 29.2525 18.6127 29.2525 17.98C29.2525 17.4253 29.3868 16.9357 29.6555 16.511C29.9328 16.0863 30.3142 15.757 30.7995 15.523C31.2935 15.2803 31.8568 15.159 32.4895 15.159C33.0702 15.159 33.6032 15.263 34.0885 15.471C34.5738 15.6703 34.9898 15.952 35.3365 16.316C35.6918 16.6713 35.9562 17.0917 36.1295 17.577L34.6735 18.227C34.4828 17.7417 34.1968 17.369 33.8155 17.109C33.4342 16.8403 32.9922 16.706 32.4895 16.706C32.1948 16.706 31.9348 16.758 31.7095 16.862C31.4842 16.9573 31.3065 17.096 31.1765 17.278C31.0552 17.4513 30.9945 17.6593 30.9945 17.902C30.9945 18.1707 31.0812 18.409 31.2545 18.617C31.4278 18.8163 31.6922 18.9723 32.0475 19.085L33.8285 19.644C34.5998 19.8953 35.1762 20.242 35.5575 20.684C35.9475 21.126 36.1425 21.672 36.1425 22.322C36.1425 22.8767 35.9995 23.3663 35.7135 23.791C35.4275 24.2157 35.0332 24.5493 34.5305 24.792C34.0278 25.0347 33.4428 25.156 32.7755 25.156Z" fill="#0C0E12"/>
</svg>
